<svg xmlns="http://www.w3.org/2000/svg" width="860" height="180" viewBox="0 0 860 180" role="img" aria-label="Identity Card">
  <defs>
    <linearGradient id="border-grad" x1="0" y1="0" x2="1" y2="1">
      <stop offset="0%" stop-color="#39d353"/>
      <stop offset="50%" stop-color="#167847"/>
      <stop offset="100%" stop-color="#58a6ff"/>
    </linearGradient>
    <radialGradient id="glow" cx="50%" cy="50%" r="50%">
      <stop offset="0%" stop-color="#39d353" stop-opacity="0.25"/>
      <stop offset="100%" stop-color="#39d353" stop-opacity="0"/>
    </radialGradient>
  </defs>

  <rect width="860" height="180" rx="14" fill="#0d1117"/>
  <rect x="1" y="1" width="858" height="178" rx="13" fill="none" stroke="url(#border-grad)" stroke-width="1.5"/>

  <path d="M1 14A13 13 0 0 1 14 1h832a13 13 0 0 1 13 13v37H1z" fill="#161b22"/>
  <line x1="1" y1="51" x2="859" y2="51" stroke="#21262d"/>
  <circle cx="24" cy="26" r="6" fill="#ff5f56"/>
  <circle cx="46" cy="26" r="6" fill="#ffbd2e"/>
  <circle cx="68" cy="26" r="6" fill="#27c93f"/>
  <text x="430" y="31" text-anchor="middle" font-family="ui-monospace,Consolas,monospace" font-size="12" fill="#8b949e">sepansarr@github: ~$ whoami --ascii</text>

  <circle cx="430" cy="115" r="140" fill="url(#glow)"/>

  <g font-family="ui-monospace,Consolas,monospace" text-anchor="middle">
    <text x="430" y="95" font-size="28" font-weight="900" letter-spacing="6" fill="#39d353">SEPANSAR</text>
    <text x="430" y="125" font-size="13" font-weight="600" letter-spacing="2" fill="#c9d1d9">SOFTWARE DEVELOPER · AI &amp; DATA SCIENCE</text>
    <circle cx="400" cy="148" r="4" fill="#39d353"/>
    <text x="412" y="152" text-anchor="start" font-size="11" fill="#39d353">ONLINE / AVAILABLE FOR PROJECTS</text>
  </g>
</svg>
